<?xml version="1.0" standalone="no"?><svg xmlns="http://www.w3.org/2000/svg" viewBox="0 0 1440 320"><path fill="#0F3446" fill-opacity="1" d="M0,224L16,218.7C32,213,64,203,96,192C128,181,160,171,192,170.7C224,171,256,181,288,202.7C320,224,352,256,384,245.3C416,235,448,181,480,181.3C512,181,544,235,576,261.3C608,288,640,288,672,277.3C704,267,736,245,768,240C800,235,832,245,864,218.7C896,192,928,128,960,122.7C992,117,1024,171,1056,186.7C1088,203,1120,181,1152,192C1184,203,1216,245,1248,245.3C1280,245,1312,203,1344,186.7C1376,171,1408,181,1424,186.7L1440,192L1440,320L1424,320C1408,320,1376,320,1344,320C1312,320,1280,320,1248,320C1216,320,1184,320,1152,320C1120,320,1088,320,1056,320C1024,320,992,320,960,320C928,320,896,320,864,320C832,320,800,320,768,320C736,320,704,320,672,320C640,320,608,320,576,320C544,320,512,320,480,320C448,320,416,320,384,320C352,320,320,320,288,320C256,320,224,320,192,320C160,320,128,320,96,320C64,320,32,320,16,320L0,320Z"></path></svg>