<?xml version="1.0" standalone="no"?><svg xmlns="http://www.w3.org/2000/svg" viewBox="0 0 1440 320"><path fill="#0F3446" fill-opacity="1" d="M0,128L18.5,138.7C36.9,149,74,171,111,186.7C147.7,203,185,213,222,202.7C258.5,192,295,160,332,154.7C369.2,149,406,171,443,154.7C480,139,517,85,554,64C590.8,43,628,53,665,90.7C701.5,128,738,192,775,186.7C812.3,181,849,107,886,96C923.1,85,960,139,997,138.7C1033.8,139,1071,85,1108,58.7C1144.6,32,1182,32,1218,48C1255.4,64,1292,96,1329,112C1366.2,128,1403,128,1422,128L1440,128L1440,0L1421.5,0C1403.1,0,1366,0,1329,0C1292.3,0,1255,0,1218,0C1181.5,0,1145,0,1108,0C1070.8,0,1034,0,997,0C960,0,923,0,886,0C849.2,0,812,0,775,0C738.5,0,702,0,665,0C627.7,0,591,0,554,0C516.9,0,480,0,443,0C406.2,0,369,0,332,0C295.4,0,258,0,222,0C184.6,0,148,0,111,0C73.8,0,37,0,18,0L0,0Z"></path></svg>