<?xml version="1.0" standalone="no"?><svg xmlns="http://www.w3.org/2000/svg" viewBox="0 0 1440 320"><path fill="#0F3446" fill-opacity="1" d="M0,128L18.5,138.7C36.9,149,74,171,111,186.7C147.7,203,185,213,222,202.7C258.5,192,295,160,332,154.7C369.2,149,406,171,443,154.7C480,139,517,85,554,64C590.8,43,628,53,665,90.7C701.5,128,738,192,775,186.7C812.3,181,849,107,886,96C923.1,85,960,139,997,138.7C1033.8,139,1071,85,1108,58.7C1144.6,32,1182,32,1218,48C1255.4,64,1292,96,1329,112C1366.2,128,1403,128,1422,128L1440,128L1440,320L1421.5,320C1403.1,320,1366,320,1329,320C1292.3,320,1255,320,1218,320C1181.5,320,1145,320,1108,320C1070.8,320,1034,320,997,320C960,320,923,320,886,320C849.2,320,812,320,775,320C738.5,320,702,320,665,320C627.7,320,591,320,554,320C516.9,320,480,320,443,320C406.2,320,369,320,332,320C295.4,320,258,320,222,320C184.6,320,148,320,111,320C73.8,320,37,320,18,320L0,320Z"></path></svg>